<svg xmlns="http://www.w3.org/2000/svg" data-name="Layer 1" viewBox="0 0 24 24"><path d="M19.5 0h-15A4.5 4.5 0 0 0 0 4.5v13A4.5 4.5 0 0 0 4.5 22H9a.5.5 0 0 0 0-1H4.5A3.5 3.5 0 0 1 1 17.5V7h22v10.5a3.5 3.5 0 0 1-3.5 3.5H15a.5.5 0 0 0 0 1h4.5a4.5 4.5 0 0 0 4.5-4.5v-13A4.5 4.5 0 0 0 19.5 0m.72 1.08L15.29 6h-5.08l5-5h4.29q.38 0 .72.08M4.2 6l5-5h4.58l-5 5zM1 4.5A3.5 3.5 0 0 1 4.5 1h3.3l-5 5H1zM16.7 6l4.53-4.52A3.5 3.5 0 0 1 23 4.5V6zm-2.77 11.5c-.9.5-1.43 1.33-1.43 2.23v.77a.5.5 0 0 1-1 0v-.77c0-1.27.73-2.43 1.95-3.1a3.01 3.01 0 0 0-.74-5.55A2.99 2.99 0 0 0 9 14v.5a.5.5 0 0 1-1 0V14a3.98 3.98 0 0 1 4.94-3.9 4 4 0 0 1 1 7.4zM13 23a1 1 0 1 1-2 0 1 1 0 0 1 2 0"/></svg>