<svg xmlns="http://www.w3.org/2000/svg" data-name="Layer 1" viewBox="0 0 24 24"><path d="M17 0H7a5 5 0 0 0-5 5v16a3 3 0 0 0 5.2 2.03l4.8-5.5 4.82 5.53a3 3 0 0 0 3.29.72A3 3 0 0 0 22 21V5a5 5 0 0 0-5-5m3 21c0 .62-.48.86-.63.92s-.66.22-1.07-.2l-5.55-6.38a1 1 0 0 0-1.5 0l-5.52 6.34a1 1 0 0 1-1.1.24A1 1 0 0 1 4 21V5a3 3 0 0 1 3-3h10a3 3 0 0 1 3 3zM16.95 7.54c.12.33.02.7-.25.93l-1.97 1.6.82 2.49a.83.83 0 0 1-1.25.96l-2.3-1.5-2.25 1.51a.83.83 0 0 1-1.26-.94l.78-2.51L7.3 8.46A.83.83 0 0 1 7.83 7h2.5l.89-2.49a.83.83 0 0 1 1.56 0L13.67 7h2.5c.35 0 .66.22.78.54"/></svg>