<svg xmlns="http://www.w3.org/2000/svg" width="512" height="512" viewBox="0 0 24 24"><path d="M16 0h-.13a2 2 0 0 0-1.94 1.53 2 2 0 0 1-3.86 0A2 2 0 0 0 8.13 0H8a5 5 0 0 0-5 5v16a3 3 0 0 0 3 3h2.13a2 2 0 0 0 1.94-1.53 2 2 0 0 1 3.86 0A2 2 0 0 0 15.87 24H18a3 3 0 0 0 3-3V5a5 5 0 0 0-5-5m2 22-2.14-.06a4 4 0 0 0-7.73.06H6a1 1 0 0 1-1-1v-4h2a1 1 0 0 0 0-2H5V5a3 3 0 0 1 3-3l.14.06A4 4 0 0 0 12 5a4.1 4.1 0 0 0 3.9-3h.1a3 3 0 0 1 3 3v10h-2a1 1 0 0 0 0 2h2v4a1 1 0 0 1-1 1"/><path d="M13 15h-2a1 1 0 0 0 0 2h2a1 1 0 0 0 0-2"/></svg>